<svg xmlns="http://www.w3.org/2000/svg" width="1440" height="900" viewBox="0 0 1440 900">
  <rect width="1440" height="900" fill="#0b1020"/>
  <rect x="40" y="30" width="1360" height="830" rx="28" fill="#121a2f" stroke="#36405a" stroke-width="2"/>
  <text x="70" y="64" fill="#d2dcff" font-family="DejaVu Sans" font-size="20" font-weight="700">TECLAS-67 · cart drawer upsells</text>
  <text x="70" y="108" fill="#ffffff" font-family="DejaVu Sans" font-size="34" font-weight="700">Hero proof, desktop cart drawer with compatibility-safe upsells</text>
  <rect x="70" y="160" width="1300" height="660" rx="26" fill="#f5f5f9"/>
  <rect x="70" y="160" width="1300" height="60" fill="#ffffff"/>
  <text x="100" y="197" fill="#111827" font-family="DejaVu Sans" font-size="24" font-weight="700">teclas.uy</text>
  <text x="1195" y="197" fill="#111827" font-family="DejaVu Sans" font-size="24" font-weight="700">Carrito (1)</text>
  <rect x="70" y="220" width="880" height="600" fill="#f7fafc"/>
  <text x="120" y="300" fill="#111827" font-family="DejaVu Sans" font-size="52" font-weight="700">AULA F75</text>
  <text x="120" y="350" fill="#4b5563" font-family="DejaVu Sans" font-size="24">El drawer recomienda accesorios compatibles sin quitar protagonismo al checkout.</text>
  <rect x="950" y="220" width="420" height="600" fill="#ffffff"/>
  <text x="980" y="260" fill="#111827" font-family="DejaVu Sans" font-size="30" font-weight="700">Tu carrito</text>
  <rect x="980" y="300" width="360" height="90" rx="18" fill="#ffffff" stroke="#e5e7eb" stroke-width="2"/>
  <rect x="995" y="315" width="70" height="70" rx="16" fill="#d8b4fe"/>
  <text x="1085" y="343" fill="#111827" font-family="DejaVu Sans" font-size="22" font-weight="700">AULA F75</text>
  <text x="1085" y="369" fill="#6b7280" font-family="DejaVu Sans" font-size="18">Tipo-C · $150</text>
  <text x="1270" y="348" fill="#111827" font-family="DejaVu Sans" font-size="22" font-weight="700">$150</text>
  <rect x="980" y="410" width="360" height="90" rx="18" fill="#ede9fe" stroke="#ddd6fe" stroke-width="2"/>
  <text x="998" y="436" fill="#6d28d9" font-family="DejaVu Sans" font-size="16" font-weight="700">Compatible con tu teclado</text>
  <text x="998" y="460" fill="#111827" font-family="DejaVu Sans" font-size="18" font-weight="700">Completá tu setup sin salir del carrito</text>
  <text x="998" y="484" fill="#4b5563" font-family="DejaVu Sans" font-size="15">Se suma a tu pedido con 1 clic y viaja en el mismo paquete.</text>
  <rect x="980" y="520" width="360" height="105" rx="18" fill="#ffffff" stroke="#e5e7eb" stroke-width="2"/>
  <rect x="995" y="535" width="70" height="70" rx="16" fill="#fde68a"/>
  <text x="1085" y="553" fill="#111827" font-family="DejaVu Sans" font-size="19" font-weight="700">Cable en Rulo Espiral</text>
  <text x="1085" y="580" fill="#6b7280" font-family="DejaVu Sans" font-size="15">Match perfecto para tu AULA, con conexión Tipo-C.</text>
  <text x="1270" y="552" fill="#111827" font-family="DejaVu Sans" font-size="20" font-weight="700">$50</text>
  <rect x="1245" y="572" width="80" height="34" rx="17" fill="#7c3aed"/>
  <text x="1261" y="594" fill="#ffffff" font-family="DejaVu Sans" font-size="14" font-weight="700">Agregar</text>
  <rect x="980" y="638" width="360" height="105" rx="18" fill="#ffffff" stroke="#e5e7eb" stroke-width="2"/>
  <rect x="995" y="653" width="70" height="70" rx="16" fill="#86efac"/>
  <text x="1085" y="671" fill="#111827" font-family="DejaVu Sans" font-size="19" font-weight="700">Mousepad XXL 90 × 40</text>
  <text x="1085" y="698" fill="#6b7280" font-family="DejaVu Sans" font-size="15">Más espacio y mejor feel para tu setup.</text>
  <text x="1270" y="670" fill="#111827" font-family="DejaVu Sans" font-size="20" font-weight="700">$25</text>
  <rect x="1245" y="690" width="80" height="34" rx="17" fill="#7c3aed"/>
  <text x="1261" y="712" fill="#ffffff" font-family="DejaVu Sans" font-size="14" font-weight="700">Agregar</text>
  <rect x="980" y="750" width="360" height="42" rx="16" fill="#111827"/>
  <text x="1080" y="777" fill="#ffffff" font-family="DejaVu Sans" font-size="20" font-weight="700">Finalizar compra</text>
</svg>