<svg xmlns="http://www.w3.org/2000/svg" width="720" height="1280" viewBox="0 0 720 1280" font-family="DejaVu Sans">
  <rect width="720" height="1280" fill="#0d1117"/>
  <rect x="0" y="0" width="720" height="76" fill="#161b22"/>
  <text x="28" y="48" font-size="28" fill="#f0f6fc" font-weight="700">GitHub</text>
  <rect x="24" y="112" width="672" height="1128" rx="20" fill="#0d1117" stroke="#30363d"/>
  <text x="56" y="176" font-size="34" font-weight="700" fill="#f0f6fc">maxtechera /</text>
  <text x="56" y="214" font-size="34" font-weight="700" fill="#f0f6fc">orchestrator</text>
  <text x="56" y="260" font-size="22" font-weight="400" fill="#8b949e">Verified AI-agent workflow</text>
<text x="56" y="289" font-size="22" font-weight="400" fill="#8b949e">orchestrator for Claude</text>
<text x="56" y="318" font-size="22" font-weight="400" fill="#8b949e">Code. Dispatch workers, run</text>
<text x="56" y="347" font-size="22" font-weight="400" fill="#8b949e">independent checks, ship</text>
<text x="56" y="376" font-size="22" font-weight="400" fill="#8b949e">only what passes.</text>
  <text x="56" y="408" font-size="18" font-weight="400" fill="#58a6ff">https://github.com/maxtechera/orchestrator/blob/main/docs/course-outline.md</text>
  <rect x="56" y="510" width="94" height="34" rx="17" fill="#1b1f24" stroke="#30363d"/><text x="78" y="533" font-size="16" fill="#c9d1d9">gtm</text>
  <rect x="162" y="510" width="136" height="34" rx="17" fill="#1b1f24" stroke="#30363d"/><text x="184" y="533" font-size="16" fill="#c9d1d9">ai-agents</text>
  <rect x="310" y="510" width="146" height="34" rx="17" fill="#1b1f24" stroke="#30363d"/><text x="332" y="533" font-size="16" fill="#c9d1d9">claude-code</text>
  <rect x="56" y="558" width="98" height="34" rx="17" fill="#1b1f24" stroke="#30363d"/><text x="80" y="581" font-size="16" fill="#c9d1d9">skill</text>
  <rect x="166" y="558" width="122" height="34" rx="17" fill="#1b1f24" stroke="#30363d"/><text x="190" y="581" font-size="16" fill="#c9d1d9">pipeline</text>
  <rect x="300" y="558" width="150" height="34" rx="17" fill="#1b1f24" stroke="#30363d"/><text x="324" y="581" font-size="16" fill="#c9d1d9">ship-engine</text>
  <rect x="462" y="558" width="122" height="34" rx="17" fill="#1b1f24" stroke="#30363d"/><text x="486" y="581" font-size="16" fill="#c9d1d9">content</text>
  <rect x="56" y="636" width="608" height="304" rx="18" fill="#111827" stroke="#334155"/>
  <text x="246" y="800" font-size="28" fill="#e2e8f0">social card</text>
  <rect x="56" y="972" width="608" height="208" rx="18" fill="#161b22" stroke="#30363d"/>
  <text x="84" y="1020" font-size="26" fill="#f0f6fc" font-weight="700">README preview</text>
  <text x="84" y="1060" font-size="20" fill="#c9d1d9">Expert orchestrator of agentic teams.</text>
  <text x="84" y="1092" font-size="20" fill="#c9d1d9">The ticket contract defines work.</text>
  <text x="84" y="1124" font-size="20" fill="#c9d1d9">The verification harness rules completion.</text>
</svg>